# xmcd CD database file
#
# Track frame offsets:
#	150
#	16031
#	28724
#	41938
#	59400
#	68500
#	79253
#	91858
#	108103
#	122612
#	135503
#	154675
#
# Disc length: 2220 seconds
#
# Revision: 0
# Processed by: cddbd v1.5.2PL0 Copyright (c) Steve Scherf et al.
# Submitted via: CDex 1.51
#
DISCID=8d08aa0c
DTITLE=Myra Rolen - Tonight Darlin'
DYEAR=2012
DGENRE=Country
TTITLE0=Tonight Darlin'
TTITLE1=If You're Going Dancin'
TTITLE2=Enough To Leave
TTITLE3=Through Young Eyes
TTITLE4=Piece Of Heaven
TTITLE5=For Pete's Sake
TTITLE6=After All
TTITLE7=I Can't Love You Anymore
TTITLE8=A Bottle Of Wine and Patsy Cline
TTITLE9=I Don't Have The Heart
TTITLE10=Pictures On The Wall
TTITLE11=Two Steppin' Texas Blue
EXTD=YEAR: 2012
EXTT0=
EXTT1=
EXTT2=
EXTT3=
EXTT4=
EXTT5=
EXTT6=
EXTT7=
EXTT8=
EXTT9=
EXTT10=
EXTT11=
PLAYORDER=
